PathFileType	4	(X/Y/Z)	../Python\walking\Walking18\task.trc
DataRate	CameraRate	NumFrames	NumMarkers	Units	OrigDataRate	OrigDataStartFrame	OrigNumFrames
200.000000	200.000000	4	30	mm	200.000000	164	439
Frame#	Time	RBAK			CLAV			STRN			RASI			LASI			PE01			RTH1			RTH2			RTH3			RTB3			RHEE			RD5M			RTOE			LTH2			LTH3			LTB2			LTB3			LHEE			LTOE			LD5M			LTB1			C7			RTB1			RTB2			LPSI			PE03			PE02			RPSI			LTH1			T10			
		X1	Y1	Z1	X2	Y2	Z2	X3	Y3	Z3	X4	Y4	Z4	X5	Y5	Z5	X6	Y6	Z6	X7	Y7	Z7	X8	Y8	Z8	X9	Y9	Z9	X10	Y10	Z10	X11	Y11	Z11	X12	Y12	Z12	X13	Y13	Z13	X14	Y14	Z14	X15	Y15	Z15	X16	Y16	Z16	X17	Y17	Z17	X18	Y18	Z18	X19	Y19	Z19	X20	Y20	Z20	X21	Y21	Z21	X22	Y22	Z22	X23	Y23	Z23	X24	Y24	Z24	X25	Y25	Z25	X26	Y26	Z26	X27	Y27	Z27	X28	Y28	Z28	X29	Y29	Z29	X30	Y30	Z30	

165	0.8200000000000001	-838.9662475585942	1235.62255859375	257.107147216797	-678.6807861328127	1232.3505859375	131.7541198730469	-622.458923339844	1047.149047851563	140.1499176025391	-656.5393676757815	854.875122070313	283.6386108398439	-643.8773193359377	849.1225585937505	54.68219757080081	-845.2238769531255	928.9584960937505	164.9868164062501	-775.4096069335942	570.174255371094	300.3404541015626	-777.0305786132817	494.1358947753909	276.690887451172	-737.7100830078127	541.560485839844	281.6311340332032	-869.0610961914067	203.2536468505861	242.1946563720704	-1013.74609375	40.58358764648439	185.2241210937501	-859.914428710938	16.57954978942872	237.1529388427736	-826.046997070313	27.99701309204103	179.6987457275391	-631.401306152344	532.3672485351565	34.1394729614258	-578.3771972656252	587.5394287109377	15.65913391113282	-503.1771545410159	205.1595001220704	38.77142333984376	-478.2056274414065	247.6558532714845	38.71660232543947	-453.5481567382815	27.70350456237794	93.2182312011719	-280.1138610839845	103.1761322021485	76.15327453613284	-308.8929138183595	72.38163757324222	36.02686691284181	-531.320007324219	279.1669006347657	30.04918098449708	-798.9481811523442	1328.915649414063	139.6418609619141	-832.7998046875005	273.6429138183595	248.9614105224611	-885.2976074218755	246.2458038330079	264.0657348632814	-848.4538574218755	888.0728149414067	128.0861816406251	-860.1247558593755	867.370971679688	141.5594329833985	-863.8438110351567	870.785522460938	191.9759674072266	-851.5244140625005	897.3052368164067	214.9574584960939	-628.3896484375002	590.7406005859377	14.41706371307374	-831.855590820313	1030.790771484375	164.866195678711	
166	0.8250000000000001	-832.0249633789067	1234.166870117188	256.8518371582032	-671.666442871094	1230.779907226563	131.4525604248047	-615.4223632812502	1045.51318359375	140.1346588134766	-649.7145996093752	853.4675292968755	283.8955383300782	-636.227478027344	847.6953735351567	54.78169250488284	-837.8107299804692	927.5214233398442	164.1430206298829	-770.8828125000005	569.5916137695315	300.5426025390626	-772.8449096679692	493.492126464844	277.0144348144532	-733.2265625000002	540.6651611328127	282.1740112304689	-867.417114257813	203.3101348876954	242.4473571777345	-1013.527160644532	42.03931808471681	185.1446990966797	-860.0116577148442	16.56022644042969	237.180877685547	-826.0014648437505	27.93664932250978	179.7816925048829	-625.166931152344	530.5380859375002	34.36565017700197	-572.056823730469	585.3609008789065	14.1644401550293	-492.1602478027346	204.5833740234376	38.72073364257814	-467.9802551269534	247.4728851318361	38.85579299926759	-439.7674255371096	27.95536422729494	93.26647949218753	-266.9681701660157	105.7506637573243	76.87712097167972	-295.2683715820314	74.42179107666018	36.68991851806642	-521.5524902343752	278.135955810547	30.06467819213869	-792.057495117188	1327.4521484375	139.2515869140626	-830.466674804688	273.3243713378907	249.3028869628907	-883.3137817382817	246.5065002441407	264.1691894531251	-841.0753784179692	886.538208007813	127.4316711425782	-852.781860351563	866.009399414063	140.6174926757813	-856.887329101563	869.444213867188	190.991928100586	-844.5883789062505	895.9248046875005	214.0766906738282	-622.1916503906252	588.7728271484377	13.87752532958985	-824.8690795898442	1029.292602539063	164.5207061767579	
167	0.8300000000000001	-825.0500488281255	1232.739013671875	256.5842590332032	-664.6207275390627	1229.235717773438	131.1360931396485	-608.3455200195315	1043.907470703125	140.1045989990235	-642.8374633789065	852.0656738281255	284.1551818847657	-628.5758056640627	846.3184204101567	54.89762496948245	-830.359252929688	926.1303100585942	163.3629302978516	-766.2322998046877	569.0086669921877	300.7225341796876	-768.5243530273442	492.8527832031252	277.3065490722657	-728.6279296875002	539.7813110351565	282.6727294921876	-865.7120971679692	203.4118499755861	242.6990051269532	-1013.266540527344	43.60280227661134	185.0676574707032	-860.1042480468755	16.55021476745606	237.1966400146486	-825.9485473632817	27.87720680236818	179.8666229248047	-618.8006591796877	528.8133544921877	34.63552093505861	-565.7053833007815	583.3482055664065	12.69891643524171	-481.5918273925784	204.0234680175782	38.68135452270509	-458.0932922363284	247.2374877929689	39.04467391967775	-426.965270996094	28.129695892334	93.33155822753909	-254.6861267089845	107.8727264404297	77.82217407226565	-282.5155029296876	76.082878112793	37.51218032836915	-512.0122680664065	277.178436279297	30.07357788085939	-785.1384887695317	1326.013061523438	138.8508605957032	-828.055053710938	273.0354309082032	249.6385650634767	-881.2509765625005	246.8166046142579	264.2626037597657	-833.6713867187505	885.064086914063	126.8178024291993	-845.4047851562505	864.7124633789067	139.7014160156251	-849.8950195312505	868.1372680664067	190.0326843261719	-837.599731445313	894.580688476563	213.2395019531251	-615.9477539062502	586.9068603515627	13.39408206939698	-817.8386230468755	1027.826049804688	164.2176055908204	
168	0.835	-818.0397949218755	1231.3466796875	256.3057250976564	-657.5438232421877	1227.726806640625	130.8042449951172	-601.2278442382815	1042.341674804688	140.0572814941407	-635.9039306640627	850.6743774414067	284.4128723144532	-620.9238281250002	845.0024414062505	55.02565002441409	-822.8688354492192	924.7926635742192	162.6537322998047	-761.4532470703127	568.4257812500002	300.8773193359376	-764.0689697265627	492.2182922363284	277.5647277832032	-723.9111938476565	538.9079589843752	283.1223754882814	-863.9439086914067	203.5610809326173	242.9492034912111	-1012.960754394532	45.27720260620119	185.0001525878907	-860.1909790039067	16.54930305480958	237.2006072998048	-825.8864135742192	27.81975746154787	179.9534149169922	-612.2740478515627	527.2089843750002	34.93640136718751	-559.2861938476565	581.5240478515627	11.30169773101807	-471.4865417480471	203.460174560547	38.66490173339845	-448.548522949219	246.9353637695314	39.28447341918947	-415.1555175781252	28.19611167907716	93.40947723388675	-243.273895263672	109.4917831420899	78.98555755615237	-270.6408691406251	77.31605529785159	38.49224853515626	-502.711853027344	276.2842407226564	30.08701133728029	-778.1906738281255	1324.605590820313	138.4405975341797	-825.563354492188	272.7797241210939	249.9667816162111	-879.104858398438	247.1784515380861	264.347381591797	-826.2424926757817	883.6589965820317	126.2486953735352	-837.993286132813	863.487915039063	138.8171691894532	-842.8627929687505	866.8706054687505	189.1048736572266	-830.5551147460942	893.2788696289067	212.4525146484376	-609.6238403320315	585.162536621094	12.97392177581788	-810.762817382813	1026.398315429688	163.9598388671876	
